<svg id="Capa_1" data-name="Capa 1" xmlns="http://www.w3.org/2000/svg" viewBox="0 0 343.12 126.73"><defs><style>.cls-1{fill:red;}.cls-2{fill:#0607dd;}</style></defs><title>logo</title><path class="cls-1" d="M801.94,810.14V823H459.89V810.14Z" transform="translate(-459.89 -696.26)"/><path class="cls-1" d="M579.89,733.26c-23.78-8.92-47-17.7-70.32-26.25-1.66-.61-4,0-5.86.72-13.29,4.87-26.51,9.91-40,15l-3.47-8.65c6.72-2.63,13.21-5.23,19.75-7.72q13-5,26-9.73a5.4,5.4,0,0,1,3.43-.16q34.73,12.75,69.36,25.68c1.48.55,2.84,1.42,4.6,2.3Z" transform="translate(-459.89 -696.26)"/><path class="cls-2" d="M470.27,726.14v-3.89h76l.21,3.89Z" transform="translate(-459.89 -696.26)"/><path class="cls-2" d="M470.18,735.16v-3.83h76.05l.22,3.83Z" transform="translate(-459.89 -696.26)"/><path class="cls-2" d="M546.22,792.73v4H470.36v-4Z" transform="translate(-459.89 -696.26)"/><path class="cls-2" d="M470.29,744.15v-3.87h75.87l.3,3.87Z" transform="translate(-459.89 -696.26)"/><path class="cls-2" d="M546.21,783.73v4H470.36v-4Z" transform="translate(-459.89 -696.26)"/><path class="cls-2" d="M470.2,752.5v-3.94h75.93v3.94Z" transform="translate(-459.89 -696.26)"/><path class="cls-2" d="M470.24,779.42v-3.9h76l.24,3.9Z" transform="translate(-459.89 -696.26)"/><path class="cls-2" d="M470.28,770.49v-3.94h75.86v3.94Z" transform="translate(-459.89 -696.26)"/><path class="cls-2" d="M470.3,761.5v-4h75.81v4Z" transform="translate(-459.89 -696.26)"/><path class="cls-2" d="M546.33,801.8v3.88H470.25l-.18-3.88Z" transform="translate(-459.89 -696.26)"/><path d="M608.54,753.45c1.91-3.87,3.59-7.3,5.29-10.72,1.42-2.89,1.42-2.89,5.41-2.35,0,7.18.06,14.4-.08,21.62,0,.81-1.12,1.6-1.73,2.39l-1.17-.58V744.64l-.75-.17c-1.81,3.62-3.56,7.27-5.46,10.85-.4.76-1.31,1.26-2,1.88a11.41,11.41,0,0,1-1.54-1.91,70.36,70.36,0,0,0-6-10.71v14.5a9.47,9.47,0,0,1-.07,3,9,9,0,0,1-1.8,2.31l-.94-.61V740.39c2.88-1.09,4.45-.16,5.58,2.51C604.72,746.32,606.57,749.57,608.54,753.45Z" transform="translate(-459.89 -696.26)"/><path d="M753.69,800.11v-23c2.95-1.11,4.5,0,5.63,2.6,1.5,3.4,3.27,6.68,5.2,10.56,1.92-3.88,3.59-7.32,5.31-10.73,1.48-2.93,1.5-2.92,5.25-2.39v23.28c-2,.73-2.87.27-2.85-2a139.59,139.59,0,0,0-.6-17.16c-2.3,4.36-4.59,8.72-7.37,14l-7-13.92-.79,0v14.52a8.84,8.84,0,0,1-.08,3c-.31.86-1.21,1.49-1.86,2.23Z" transform="translate(-459.89 -696.26)"/><path d="M650.91,763.74V740c2.87,0,5.79-.45,8.48.14,2.32.5,5.31,1.67,6.29,3.47.88,1.63-.56,4.52-1,7.24a5.86,5.86,0,0,1,4,6.54c-.47,4-3.4,6-7.26,6.28C658,763.93,654.68,763.74,650.91,763.74Zm3-2.9a76.51,76.51,0,0,0,8.48-.07,3.61,3.61,0,0,0,3.4-4.12c-.11-2.46-1.39-3.69-3.68-3.8-2.68-.14-5.38,0-8.2,0ZM654,743v6.68c2.27,0,4.51.47,6.36-.16,1.32-.46,2.55-2.29,3-3.74.17-.6-1.78-2.37-3-2.66C658.33,742.69,656.18,743,654,743Z" transform="translate(-459.89 -696.26)"/><path d="M591.5,763.67c-3,.92-4.29-.31-5.42-2.5A180.28,180.28,0,0,0,576,743.84v19.72l-1.05.76c-.72-.67-2.06-1.33-2.07-2-.16-7.34-.1-14.69-.1-21.87,3.59-1.34,5.35.11,6.78,2.94,2.58,5.11,5.43,10.09,8.73,16.15v-19l1.06-.78c.72.72,2.06,1.42,2.07,2.15C591.56,749.16,591.5,756.39,591.5,763.67Z" transform="translate(-459.89 -696.26)"/><path d="M598.53,776.84h15.75c.91,1.95.62,3-1.8,2.92-3.6-.06-7.2,0-11,0v6.32c4.33.39,8.76.79,13.18,1.28.06,0,0,1.14,0,2.13H601.43v8.27c3.69,0,7.39-.11,11.08.09.88,0,1.69,1.14,2.54,1.75l-.61,1H598.53Z" transform="translate(-459.89 -696.26)"/><path d="M572.94,800.73V776.82c6.59,0,13.37-1.26,17.86,5A11.39,11.39,0,0,1,591,795.2C586.69,802,579.67,800.47,572.94,800.73Zm3-3.1c5,.13,10.47,1.22,12.83-4.06a12.87,12.87,0,0,0-.11-9.83c-2.52-5-7.84-4.13-12.72-3.82Z" transform="translate(-459.89 -696.26)"/><path d="M803,789.33c-.43,7.53-5.21,12.41-11.91,12.16-6.87-.26-11.63-5.79-11.32-13.14.32-7.66,5.35-12.78,12.1-12.33S803.4,782,803,789.33Zm-3-.49c0-6.56-2.77-9.81-8.42-9.83-6,0-8.84,3.14-8.83,9.83,0,6.45,2.85,9.63,8.63,9.65S800,795.31,800,788.84Z" transform="translate(-459.89 -696.26)"/><path d="M623.76,752.25c-.11-7.46,4.64-12.83,11.47-13S646.91,744.39,647,752s-4.78,12.78-11.65,12.77S623.86,759.66,623.76,752.25Zm20.24-.31c0-6.48-2.86-9.68-8.59-9.69-5.9,0-8.69,3.23-8.66,10,0,6.41,2.93,9.54,8.79,9.5Q644,761.69,644,751.94Z" transform="translate(-459.89 -696.26)"/><path d="M742.25,739.81c3.63.22,6.71.38,9.8.61a5.85,5.85,0,0,1,5.75,5c.55,2.8-.69,5.08-3.07,6.71-.6.41-1.15.88-1.88,1.44l8.12,9.82-.55.87a12.44,12.44,0,0,1-3.24-1.76,37.31,37.31,0,0,1-4.26-5.2c-1.83-2.65-4.11-3.78-7.54-2.69v8.77l-.89.82c-.74-.69-2.12-1.37-2.14-2.08C742.19,754.9,742.25,747.68,742.25,739.81Zm3.06,3.52c0,2.45,0,4.67,0,6.9,0,.31.29.62.43.9,7.24.36,9.37-.68,9.23-4.45C754.87,743.27,752.7,742.48,745.31,743.33Z" transform="translate(-459.89 -696.26)"/><path d="M697,791.27c-1.78,2.93,1.49,7.33-3.27,10.28V776.61c3.33.2,6.51.37,9.69.6s5.55,2.13,5.53,5c0,2.23-1.9,4.48-3.06,6.66-.26.49-1,.74-1.75,1.31l8.11,10-.52.8a11.28,11.28,0,0,1-3.09-1.6,34.83,34.83,0,0,1-4.53-5.47C702.26,791.17,700,790.3,697,791.27Zm-.31-2.4c3.34-1.07,6.32-1.75,9-3.09.61-.31.52-4,0-4.25a63.57,63.57,0,0,0-8.93-2.36Z" transform="translate(-459.89 -696.26)"/><path d="M747.83,780.19c-3.89-.43-7.2-1.19-10.44-1-1.45.1-3.46,1.93-4,3.4-.79,2.26,1,3.53,3.3,4s4.91.5,6.83,1.66,4.16,3.36,4.34,5.29-1.46,4.79-3.17,6.1c-4.08,3.12-8.79,1.93-13.16.25-.83-.32-1.12-2-1.69-3.18,3.9.67,7.21,1.46,10.55,1.72,2.33.18,4.45-.73,4.83-3.6.41-3.11-1.89-3.74-4.07-4.35s-4.37-.89-6.51-1.51c-2.87-.82-4.74-3.17-4.21-5.8a10.25,10.25,0,0,1,4.22-5.92c3.61-2.29,7.73-1.17,11.5.21C747,777.73,747.33,779.3,747.83,780.19Z" transform="translate(-459.89 -696.26)"/><path d="M672.5,777.33c0,5,0,9.95,0,14.92.05,4.51,1.77,6.25,6,6.25s5.93-1.74,6-6.25c.06-5,0-10,0-16.26,1.44,1.11,2.88,1.7,2.88,2.29a149.08,149.08,0,0,1-.5,16.38c-.49,4.48-3.88,6.85-8.37,6.82s-7.82-2.19-8.37-6.81a139.49,139.49,0,0,1-.54-16.37c0-.63,1.3-1.25,2-1.87Z" transform="translate(-459.89 -696.26)"/><path d="M737,764.26c-.78-1-2-1.82-2.26-2.89-.71-3.5-2.64-4.27-6-4.25-4,0-7.07.27-7.63,5.14-.08.74-1.44,1.33-2.2,2l-1-.71c2.61-7.43,5.19-14.87,7.92-22.26a2.64,2.64,0,0,1,4.51.15c2.7,7.3,5.25,14.66,7.84,22Zm-8.56-20.83h-.83L724,754.06h8.11Z" transform="translate(-459.89 -696.26)"/><path d="M796.92,764.27c-.77-1-1.62-1.9-2.29-2.94-.83-1.29-1.37-3.71-2.29-3.84a30,30,0,0,0-9.26.18c-.79.14-1.08,2.61-1.8,3.89a21.05,21.05,0,0,1-2.18,2.75l-1.23-.81c2.61-7.43,5.16-14.89,7.89-22.28.65-1.76,3.81-1.83,4.45-.09,2.74,7.4,5.29,14.88,7.9,22.33ZM784,754.05h8.13c-1.36-3.81-2.6-7.27-4.18-11.71C786.39,746.89,785.23,750.35,784,754.05Z" transform="translate(-459.89 -696.26)"/><path d="M665.33,776.75c.2,2.94.2,3-2.46,3-1.61,0-3.23,0-5.37,0,0,6.22,0,12.28,0,18.33,0,1.91-.19,3.31-3,2.29V779.84h-7.7l-.78-.94c.72-.72,1.43-2,2.17-2C653.92,776.68,659.64,776.75,665.33,776.75Z" transform="translate(-459.89 -696.26)"/><path d="M690.43,739.11V761c3.71,0,7.16-.13,10.59.08.87,0,1.69,1.15,2.53,1.77l-.62,1H687.51c0-7.44,0-14.88.1-22.31C687.62,740.91,689,740.33,690.43,739.11Z" transform="translate(-459.89 -696.26)"/><path d="M620.73,776.44c.5,1,1.42,2.09,1.45,3.15.14,5.93.07,11.87.07,18.07h12.18l.79.89c-.71.73-1.38,2.06-2.12,2.1-4.45.19-8.91.09-13.61.09V777.21Z" transform="translate(-459.89 -696.26)"/><path d="M567.65,740.24l-3.76,4.08v15.51l3.24,3.18-.63.83h-9.42l3.6-4.49c-1.24-5.49,3-12.81-3.46-19.11Z" transform="translate(-459.89 -696.26)"/><path d="M679.42,759.89l3.22,3.06-.61.87h-8.47l-.66-.78,3.23-3.27V744.09l-3.2-3.12.67-.82h9.48l-3.66,4.3Z" transform="translate(-459.89 -696.26)"/><path d="M711.65,759.86,714.9,763l-.63.85h-9.4l3.52-4.45V744.14L705.22,741l.69-.84h9.52l-3.78,4.22Z" transform="translate(-459.89 -696.26)"/><path d="M718.92,781c-1.49-1.4-2.41-2.27-3.34-3.13l.61-.87h8.46l.67.75-3.2,3.28V796.7l3.2,3.06-.65.84H715.2l3.72-4.38Z" transform="translate(-459.89 -696.26)"/><path d="M767.68,759.35c-1.09-5.55,2.81-12.85-3.56-19.21h10.46l-3.67,4.31v15.44l3.23,3.07-.63.86h-9.42Z" transform="translate(-459.89 -696.26)"/></svg>