<svg xmlns="http://www.w3.org/2000/svg"  viewBox="0 0 128 128" width="64px" height="64px"><path fill="#444b54" d="M9.2 62.8c-.1 0-.2 0-.2 0-1.7-.1-2.9-1.6-2.8-3.2.5-6.3 2-12.4 4.4-18.1.6-1.5 2.4-2.2 3.9-1.6 1.5.6 2.2 2.4 1.6 3.9-2.2 5.2-3.5 10.6-3.9 16.2C12 61.6 10.7 62.8 9.2 62.8zM117.1 40.6c-.7-1.5-2.4-2.2-4-1.5-1.5.7-2.2 2.4-1.5 4 8.7 19.8 4.5 42.5-10.8 57.8C90.9 110.6 77.9 116 64 116c-11.2 0-21.9-3.5-30.8-10.1l0 0h4.9c1.7 0 3-1.3 3-3s-1.3-3-3-3h-13c-1.7 0-3 1.3-3 3v13c0 1.7 1.3 3 3 3s3-1.3 3-3v-6.3l0 0C38.6 117.8 51.3 122 64 122c14.9 0 29.7-5.7 41-17C122.1 88 126.8 62.7 117.1 40.6zM25.2 25.2c1.1 1.1 2.9 1.2 4.1.1C38.9 16.7 51.1 12 64 12c11.2 0 21.9 3.5 30.8 10.1l0 0-4.8 0c-1.6 0-3.1 1.2-3.2 2.8-.1 1.7 1.3 3.2 3 3.2h13c1.7 0 3-1.3 3-3V12.3c0-1.6-1.2-3.1-2.8-3.2-1.7-.1-3.2 1.3-3.2 3v6.3l0 0C78 1.1 46.3 1.9 25.3 20.8 24 22 24 24 25.2 25.2L25.2 25.2zM11.5 77.69999999999999A2.9 2.9 0 1 0 11.5 83.5 2.9 2.9 0 1 0 11.5 77.69999999999999z"/></svg>