<svg fill="#000000" xmlns="http://www.w3.org/2000/svg"  viewBox="0 0 100 100" width="200px" height="200px"><path d="M 24 15 C 19.041484 15 15 19.041484 15 24 L 15 61 C 15 65.958516 19.041484 70 24 70 L 61 70 C 65.958516 70 70 65.958516 70 61 L 70 24 C 70 19.041484 65.958516 15 61 15 L 24 15 z M 24 17 L 61 17 C 64.877484 17 68 20.122516 68 24 L 68 61 C 68 64.877484 64.877484 68 61 68 L 24 68 C 20.122516 68 17 64.877484 17 61 L 17 24 C 17 20.122516 20.122516 17 24 17 z M 24.5 20 C 22.027273 20 20 22.027273 20 24.5 L 20 60.5 C 20 62.972727 22.027273 65 24.5 65 L 60.5 65 C 62.972727 65 65 62.972727 65 60.5 L 65 43 A 0.50005 0.50005 0 1 0 64 43 L 64 60.5 C 64 62.427273 62.427273 64 60.5 64 L 24.5 64 C 22.572727 64 21 62.427273 21 60.5 L 21 24.5 C 21 22.572727 22.572727 21 24.5 21 L 53.5 21 A 0.50005 0.50005 0 1 0 53.5 20 L 24.5 20 z M 74 30 A 1.0001 1.0001 0 1 0 74 32 L 76 32 C 79.877484 32 83 35.122516 83 39 L 83 76 C 83 79.877484 79.877484 83 76 83 L 39 83 C 35.122516 83 32 79.877484 32 76 L 32 74 A 1.0001 1.0001 0 1 0 30 74 L 30 76 C 30 80.958516 34.041484 85 39 85 L 76 85 C 80.958516 85 85 80.958516 85 76 L 85 39 C 85 34.041484 80.958516 30 76 30 L 74 30 z M 64.492188 30.992188 A 0.50005 0.50005 0 0 0 64 31.5 L 64 33.5 A 0.50005 0.50005 0 1 0 65 33.5 L 65 31.5 A 0.50005 0.50005 0 0 0 64.492188 30.992188 z M 55.570312 31 C 54.920312 30.997 54.269484 31.224359 53.771484 31.693359 L 37.474609 48.064453 L 31.181641 41.650391 C 30.164641 40.725391 28.580391 40.799359 27.650391 41.818359 C 27.201391 42.312359 26.972906 42.952141 27.003906 43.619141 C 27.034906 44.286141 27.323781 44.900031 27.800781 45.332031 L 35.816406 53.349609 C 36.277406 53.769609 36.876 54 37.5 54 C 38.141 54 38.749562 53.758594 39.226562 53.308594 L 57.216797 35.318359 C 57.702797 34.859359 57.979047 34.237313 57.998047 33.570312 C 58.017047 32.902313 57.775406 32.268203 57.316406 31.783203 C 56.857406 31.297203 56.238312 31.019 55.570312 31 z M 55.541016 32.001953 C 55.942016 32.013953 56.314844 32.178703 56.589844 32.470703 C 56.864844 32.761703 57.009047 33.142969 56.998047 33.542969 C 56.987047 33.943969 56.821531 34.316563 56.519531 34.601562 L 38.529297 52.591797 C 37.976297 53.111797 37.033813 53.103953 36.507812 52.626953 L 28.490234 44.609375 C 28.194234 44.340375 28.020953 43.972266 28.001953 43.572266 C 27.982953 43.172266 28.121625 42.788187 28.390625 42.492188 C 28.689625 42.164188 29.100766 41.998047 29.509766 41.998047 C 29.863766 41.998047 30.215234 42.122094 30.490234 42.371094 L 37.119141 49.125 C 37.212141 49.219 37.339656 49.273438 37.472656 49.273438 L 37.474609 49.273438 C 37.606609 49.273437 37.734125 49.220953 37.828125 49.126953 L 54.470703 32.410156 C 54.761703 32.134156 55.149016 31.982953 55.541016 32.001953 z M 64.492188 34.992188 A 0.50005 0.50005 0 0 0 64 35.5 L 64 39.5 A 0.50005 0.50005 0 1 0 65 39.5 L 65 35.5 A 0.50005 0.50005 0 0 0 64.492188 34.992188 z"/></svg>