<svg fill="#000000" xmlns="http://www.w3.org/2000/svg"  viewBox="0 0 100 100" width="200px" height="200px"><path d="M 18 19 A 1.0001 1.0001 0 0 0 17 20 L 17 82 A 1.0001 1.0001 0 0 0 18 83 L 80 83 A 1.0001 1.0001 0 0 0 81 82 L 81 69 A 1.0001 1.0001 0 0 0 80 68 L 74 68 A 1.0001 1.0001 0 0 0 73 69 L 73 75 L 25 75 L 25 20 A 1.0001 1.0001 0 0 0 24 19 L 18 19 z M 70.269531 19.017578 C 70.065766 18.999898 69.86111 19.00202 69.658203 19.025391 C 68.846575 19.118871 68.069169 19.537908 67.550781 20.267578 C 66.631517 21.560369 66.970898 23.333949 68.134766 24.353516 L 70.017578 26.001953 L 53 26.001953 C 44.117968 26.001953 36.516744 31.519428 33.449219 39.318359 A 0.50033731 0.50033731 0 1 0 34.380859 39.683594 C 37.301334 32.258526 44.532032 27.001953 53 27.001953 L 71.347656 27.001953 A 0.50005 0.50005 0 0 0 71.675781 26.125 L 68.792969 23.601562 C 67.988836 22.897129 67.770452 21.686865 68.367188 20.847656 C 69.072412 19.854997 70.427987 19.717622 71.318359 20.496094 L 79.291016 27.470703 C 80.246482 28.306837 80.242825 29.771345 79.283203 30.603516 L 71.320312 37.503906 A 0.50005 0.50005 0 0 0 71.320312 37.505859 C 70.937781 37.839207 70.469515 38 70.001953 38 C 69.420122 38 68.847079 37.752356 68.445312 37.257812 C 67.763904 36.419277 67.95007 35.136972 68.789062 34.402344 L 71.675781 31.876953 A 0.50005 0.50005 0 0 0 71.345703 31 L 53 31 C 51.388704 31 49.831538 31.237653 48.363281 31.681641 A 0.50005 0.50005 0 1 0 48.652344 32.638672 C 50.028087 32.222659 51.487296 32 53 32 L 70.015625 32 L 68.128906 33.650391 C 66.909899 34.717762 66.625331 36.603207 67.669922 37.888672 C 68.26413 38.619311 69.132281 39 70.001953 39 C 70.701784 39 71.407379 38.753512 71.974609 38.259766 L 79.9375 31.359375 A 0.50005 0.50005 0 0 0 79.939453 31.359375 C 81.343818 30.141546 81.347719 27.940663 79.949219 26.716797 L 71.976562 19.742188 C 71.480953 19.308864 70.880827 19.070618 70.269531 19.017578 z M 19 21 L 23 21 L 23 76 A 1.0001 1.0001 0 0 0 24 77 L 73 77 L 74 77 A 1.0001 1.0001 0 0 0 75 76 L 75 70 L 79 70 L 79 81 L 19 81 L 19 21 z M 46.523438 32.421875 A 0.50005 0.50005 0 0 0 46.466797 32.423828 A 0.50005 0.50005 0 0 0 46.289062 32.472656 C 45.937888 32.634817 45.592715 32.809067 45.255859 32.996094 A 0.50053494 0.50053494 0 1 0 45.742188 33.871094 C 46.057331 33.696121 46.378206 33.532699 46.707031 33.380859 A 0.50005 0.50005 0 0 0 46.523438 32.421875 z M 43.525391 34.230469 A 0.50005 0.50005 0 0 0 43.216797 34.339844 C 42.860669 34.615456 42.516538 34.905834 42.185547 35.208984 A 0.50005 0.50005 0 1 0 42.861328 35.945312 C 43.172337 35.660463 43.494253 35.389247 43.828125 35.130859 A 0.50005 0.50005 0 0 0 43.525391 34.230469 z M 40.746094 36.972656 A 0.50005 0.50005 0 0 0 40.375 37.169922 C 38.260225 39.882283 37 43.296722 37 47 L 37 58.5 A 0.50005 0.50005 0 1 0 38 58.5 L 38 47 C 38 43.523278 39.180839 40.328795 41.164062 37.785156 A 0.50005 0.50005 0 0 0 40.746094 36.972656 z M 33.003906 41.974609 A 0.50005 0.50005 0 0 0 32.511719 42.371094 C 32.176721 43.860657 32 45.409868 32 47 L 32 65.357422 C 32 66.905228 33.113505 68.326706 34.691406 68.484375 C 36.472988 68.66289 38 67.252721 38 65.5 L 38 61.5 A 0.50005 0.50005 0 1 0 37 61.5 L 37 65.5 C 37 66.679279 36.003434 67.611719 34.791016 67.490234 C 33.766917 67.387903 33 66.425616 33 65.357422 L 33 47 C 33 45.484132 33.169279 44.00828 33.488281 42.589844 A 0.50005 0.50005 0 0 0 33.003906 41.974609 z"/></svg>