<svg fill="#000000" xmlns="http://www.w3.org/2000/svg"  viewBox="0 0 100 100" width="200px" height="200px"><path d="M 64.544922 16.005859 C 64.164332 16.014757 63.781403 16.034812 63.396484 16.066406 C 54.36459 16.807349 47.013742 24.055427 46.097656 33.068359 C 45.797234 36.022995 46.262442 38.825183 47.189453 41.396484 L 18.382812 70.201172 C 15.236693 73.347293 15.236693 78.478879 18.382812 81.625 C 21.528934 84.771121 26.66052 84.771121 29.806641 81.625 L 58.619141 52.8125 C 61.19053 53.737599 63.990532 54.203744 66.945312 53.900391 C 75.950864 52.977964 83.191596 45.630998 83.933594 36.605469 C 84.186352 33.531299 83.704911 30.583091 82.642578 27.933594 A 1.0001 1.0001 0 0 0 81.714844 27.306641 L 81.712891 27.306641 A 1.0001 1.0001 0 0 0 81.005859 27.599609 L 70.384766 38.21875 C 69.343726 39.25979 67.687524 39.25979 66.646484 38.21875 L 61.791016 33.361328 C 60.749976 32.320288 60.749976 30.66604 61.791016 29.625 L 72.414062 19 A 1.0001 1.0001 0 0 0 72.707031 18.292969 A 1.0001 1.0001 0 0 0 72.080078 17.363281 C 69.758928 16.430017 67.209048 15.943575 64.544922 16.005859 z M 65.183594 18.017578 C 66.784145 18.063087 68.316753 18.360937 69.789062 18.796875 L 60.375 28.208984 C 58.57004 30.013945 58.57004 32.97043 60.375 34.775391 L 65.232422 39.632812 C 67.037382 41.437773 69.993868 41.437773 71.798828 39.632812 L 81.207031 30.226562 C 81.784839 32.18573 82.119578 34.250632 81.939453 36.441406 C 81.277451 44.493877 74.782635 51.086583 66.742188 51.910156 C 63.869186 52.205114 61.146776 51.760993 58.6875 50.775391 A 1.0001 1.0001 0 0 0 57.607422 50.996094 L 28.392578 80.208984 C 26.010699 82.590864 22.178754 82.590864 19.796875 80.208984 C 17.414996 77.827105 17.414996 73.997114 19.796875 71.615234 L 49.007812 42.40625 A 1.0001 1.0001 0 0 0 49.228516 41.326172 C 48.240995 38.866829 47.793801 36.14462 48.085938 33.271484 C 48.903852 25.224416 55.502442 18.721604 63.560547 18.060547 C 64.109664 18.015476 64.650077 18.002408 65.183594 18.017578 z M 79.041016 37.994141 A 0.50005 0.50005 0 0 0 78.587891 38.378906 C 78.506121 38.704081 78.412787 39.024324 78.306641 39.341797 A 0.50005 0.50005 0 1 0 79.253906 39.658203 C 79.36776 39.317676 79.470369 38.971919 79.558594 38.621094 A 0.50005 0.50005 0 0 0 79.041016 37.994141 z M 77.921875 40.994141 A 0.50005 0.50005 0 0 0 77.494141 41.271484 C 77.147427 41.947527 76.748114 42.592482 76.298828 43.203125 A 0.50005 0.50005 0 1 0 77.103516 43.796875 C 77.584229 43.143518 78.013479 42.452473 78.384766 41.728516 A 0.50005 0.50005 0 0 0 77.921875 40.994141 z M 50.490234 43.943359 A 0.50005 0.50005 0 0 0 50.146484 44.095703 L 49.146484 45.095703 A 0.50005 0.50005 0 1 0 49.853516 45.802734 L 50.853516 44.802734 A 0.50005 0.50005 0 0 0 50.490234 43.943359 z M 75.001953 44.933594 A 0.50005 0.50005 0 0 0 74.654297 45.076172 C 72.452442 47.185236 69.58152 48.599859 66.439453 48.921875 A 0.50062918 0.50062918 0 1 0 66.541016 49.917969 C 69.916948 49.571985 72.991558 48.053764 75.345703 45.798828 A 0.50005 0.50005 0 0 0 75.001953 44.933594 z M 47.990234 46.443359 A 0.50005 0.50005 0 0 0 47.646484 46.595703 L 46.146484 48.09375 A 0.50005 0.50005 0 1 0 46.853516 48.800781 L 48.353516 47.302734 A 0.50005 0.50005 0 0 0 47.990234 46.443359 z M 44.990234 49.443359 A 0.50005 0.50005 0 0 0 44.646484 49.59375 L 29.146484 65.089844 A 0.50005 0.50005 0 1 0 29.853516 65.796875 L 45.353516 50.300781 A 0.50005 0.50005 0 0 0 44.990234 49.443359 z M 24 73 C 22.349068 73 21 74.349068 21 76 C 21 77.650932 22.349068 79 24 79 C 25.650932 79 27 77.650932 27 76 C 27 74.349068 25.650932 73 24 73 z M 24 74 C 25.110492 74 26 74.889508 26 76 C 26 77.110492 25.110492 78 24 78 C 22.889508 78 22 77.110492 22 76 C 22 74.889508 22.889508 74 24 74 z"/></svg>