<svg fill="#000000" xmlns="http://www.w3.org/2000/svg"  viewBox="0 0 100 100" width="200px" height="200px"><path d="M 49 24 C 40.325381 24 33.282931 30.944503 33.044922 39.5625 C 31.543944 38.658058 29.877833 38 28 38 C 22.488666 38 18 42.488666 18 48 C 10.27961 48 4 54.27961 4 62 C 4 69.72039 10.27961 76 18 76 L 82 76 C 89.72039 76 96 69.72039 96 62 C 96 55.908697 92.040133 50.827036 86.59375 48.908203 C 86.799976 47.963392 87 47.012701 87 46 C 87 38.27961 80.72039 32 73 32 C 69.598511 32 66.519849 33.271283 64.09375 35.292969 C 62.055583 28.796258 56.157398 24 49 24 z M 49 26 C 55.763916 26 61.388709 30.784302 62.707031 37.144531 A 1.0001 1.0001 0 0 0 64.402344 37.638672 C 66.58481 35.395222 69.620969 34 73 34 C 79.63961 34 85 39.36039 85 46 C 85 47.11409 84.837644 48.191002 84.548828 49.224609 A 1.0001 1.0001 0 0 0 84.542969 49.255859 C 83.719403 49.092121 82.870348 49 82 49 C 79.075837 49 76.371466 49.968084 74.199219 51.599609 A 0.50005 0.50005 0 1 0 74.800781 52.398438 C 76.806534 50.891962 79.296163 50 82 50 C 83.090143 50 84.141836 50.149656 85.144531 50.421875 A 1.0001 1.0001 0 0 0 85.240234 50.455078 C 90.289595 51.870597 94 56.488253 94 62 C 94 68.63961 88.63961 74 82 74 L 18 74 C 11.36039 74 6 68.63961 6 62 C 6 55.36039 11.36039 50 18 50 L 19.058594 50 A 1.0001 1.0001 0 0 0 20.052734 48.888672 C 20.019189 48.590394 20 48.294607 20 48 C 20 43.569334 23.569334 40 28 40 C 30.085239 40 31.968049 40.79927 33.394531 42.105469 A 1.0001 1.0001 0 0 0 35.064453 41.277344 C 35.025227 40.845855 35 40.421596 35 40 C 35 32.25648 41.25648 26 49 26 z M 50.001953 36.998047 C 49.419263 36.998047 48.862695 37.254281 48.482422 37.697266 L 40.488281 46.689453 A 0.50005 0.50005 0 0 0 40.482422 46.697266 C 39.768816 47.532675 39.866578 48.800986 40.699219 49.515625 A 0.50005 0.50005 0 0 0 40.699219 49.517578 C 41.53274 50.231836 42.80233 50.133881 43.517578 49.300781 L 43.519531 49.300781 L 48 44.289062 L 48 66.998047 C 48 68.096578 48.901469 68.998047 50 68.998047 C 51.098531 68.998047 52 68.096578 52 66.998047 L 52 44.291016 L 56.480469 49.300781 C 56.480469 49.300781 56.482422 49.300781 56.482422 49.300781 C 57.19767 50.133881 58.46726 50.231836 59.300781 49.517578 C 59.759608 49.123729 59.998047 48.560527 59.998047 47.998047 C 59.998047 47.538367 59.839016 47.072938 59.517578 46.697266 A 0.50005 0.50005 0 0 0 59.511719 46.689453 L 51.517578 37.697266 C 51.138375 37.253971 50.584643 36.998047 50.001953 36.998047 z M 50.001953 37.998047 C 50.293263 37.998047 50.569016 38.12695 50.757812 38.347656 A 0.50005 0.50005 0 0 0 50.763672 38.353516 L 58.757812 47.347656 C 58.922376 47.539984 58.998047 47.765727 58.998047 47.998047 C 58.998047 48.281567 58.883564 48.557662 58.650391 48.757812 C 58.226387 49.121148 57.603211 49.073976 57.240234 48.650391 A 0.50005 0.50005 0 0 0 57.234375 48.642578 L 51.873047 42.648438 A 0.50005 0.50005 0 0 0 51 42.980469 L 51 66.998047 C 51 67.555515 50.557469 67.998047 50 67.998047 C 49.442531 67.998047 49 67.555515 49 66.998047 L 49 42.980469 A 0.50005 0.50005 0 0 0 48.126953 42.646484 L 42.765625 48.642578 A 0.50005 0.50005 0 0 0 42.759766 48.650391 C 42.396789 49.073976 41.773613 49.121149 41.349609 48.757812 C 40.92625 48.394452 40.877794 47.774247 41.242188 47.347656 L 49.236328 38.353516 A 0.50005 0.50005 0 0 0 49.242188 38.347656 C 49.431914 38.126641 49.710643 37.998047 50.001953 37.998047 z M 72.855469 52.994141 A 0.50005 0.50005 0 0 0 72.46875 53.160156 C 72.161932 53.490895 71.871736 53.837768 71.599609 54.199219 A 0.50005 0.50005 0 1 0 72.398438 54.800781 C 72.650311 54.466232 72.917989 54.145105 73.201172 53.839844 A 0.50005 0.50005 0 0 0 72.855469 52.994141 z M 31 53 C 28.229897 53 25.957278 54.914078 25.271484 57.472656 C 24.550135 57.220636 23.807286 57 23 57 C 19.139805 57 16 60.139805 16 64 C 16 64.179905 16.007404 64.359736 16.021484 64.539062 A 0.50005 0.50005 0 1 0 17.017578 64.460938 C 17.005711 64.31026 17 64.156095 17 64 C 17 60.680195 19.680195 58 23 58 C 23.850786 58 24.656791 58.179189 25.390625 58.498047 A 0.50005 0.50005 0 0 0 26.082031 58.125 C 26.495603 55.781732 28.532294 54 31 54 C 32.215899 54 33.326243 54.432628 34.193359 55.152344 A 0.50005 0.50005 0 1 0 34.832031 54.382812 C 33.793148 53.52053 32.454101 53 31 53 z"/></svg>