<?xml version="1.0"?><svg fill="#000000" xmlns="http://www.w3.org/2000/svg"  viewBox="0 0 100 100" width="200px" height="200px">    <path d="M 30.806641 16.306641 C 22.259641 16.306641 15.306641 23.035641 15.306641 31.306641 C 15.306641 39.414252 21.992265 46.022631 30.306641 46.28125 L 30.306641 54.332031 C 21.992265 54.590651 15.306641 61.19903 15.306641 69.306641 C 15.306641 77.577641 22.259641 84.306641 30.806641 84.306641 C 39.353641 84.306641 46.306641 77.577641 46.306641 69.306641 C 46.306641 67.052005 45.77634 64.920401 44.851562 63 L 55.078125 56.402344 L 56.722656 59.25 L 48.871094 63.783203 C 48.632094 63.921203 48.551453 64.227797 48.689453 64.466797 C 48.782453 64.627797 48.950047 64.716797 49.123047 64.716797 C 49.207047 64.716797 49.293047 64.693438 49.373047 64.648438 L 57.65625 59.865234 C 57.70526 59.836681 57.746924 59.797889 57.783203 59.755859 C 60.627521 63.139621 64.958267 65.306641 69.806641 65.306641 C 78.353641 65.306641 85.306641 58.577641 85.306641 50.306641 C 85.306641 42.035641 78.353641 35.306641 69.806641 35.306641 C 65.102465 35.306641 60.889865 37.352466 58.044922 40.564453 L 51.003906 36.498047 C 50.763906 36.359047 50.458312 36.441641 50.320312 36.681641 C 50.182312 36.920641 50.264906 37.227234 50.503906 37.365234 L 57.404297 41.349609 C 56.730446 42.221145 56.149264 43.161221 55.681641 44.164062 L 44.833984 37.650391 C 45.769673 35.720752 46.306641 33.575371 46.306641 31.306641 C 46.306641 23.035641 39.353641 16.306641 30.806641 16.306641 z M 30.806641 18.306641 C 38.250641 18.306641 44.306641 24.138641 44.306641 31.306641 C 44.306641 38.474641 38.250641 44.306641 30.806641 44.306641 C 23.362641 44.306641 17.306641 38.474641 17.306641 31.306641 C 17.306641 24.138641 23.362641 18.306641 30.806641 18.306641 z M 30.501953 20.865234 C 24.765953 20.865234 20.099609 25.531578 20.099609 31.267578 C 20.099609 37.003578 24.765953 41.669922 30.501953 41.669922 C 36.237953 41.669922 40.903344 37.003578 40.902344 31.267578 C 40.902344 30.991578 40.678344 30.767578 40.402344 30.767578 C 40.126344 30.767578 39.902344 30.991578 39.902344 31.267578 C 39.902344 36.451578 35.685953 40.669922 30.501953 40.669922 C 25.317953 40.669922 21.099609 36.451578 21.099609 31.267578 C 21.099609 26.083578 25.317953 21.865234 30.501953 21.865234 C 30.777953 21.865234 31.001953 21.641234 31.001953 21.365234 C 31.001953 21.089234 30.777953 20.865234 30.501953 20.865234 z M 34.357422 21.644531 C 34.162703 21.644531 33.976734 21.757969 33.896484 21.949219 C 33.789484 22.203219 33.908109 22.496516 34.162109 22.603516 C 35.687109 23.249516 37.021484 24.293047 38.021484 25.623047 C 38.119484 25.753047 38.269875 25.822266 38.421875 25.822266 C 38.525875 25.822266 38.632656 25.789703 38.722656 25.720703 C 38.943656 25.554703 38.986312 25.242484 38.820312 25.021484 C 37.714313 23.551484 36.238781 22.397594 34.550781 21.683594 C 34.487531 21.656844 34.422328 21.644531 34.357422 21.644531 z M 69.806641 37.306641 C 77.250641 37.306641 83.306641 43.138641 83.306641 50.306641 C 83.306641 57.474641 77.250641 63.306641 69.806641 63.306641 C 62.362641 63.306641 56.306641 57.474641 56.306641 50.306641 C 56.306641 43.138641 62.362641 37.306641 69.806641 37.306641 z M 44.376953 38.541016 L 55.291016 45.097656 C 54.665842 46.723322 54.306641 48.472841 54.306641 50.306641 C 54.306641 52.023701 54.622458 53.66734 55.173828 55.205078 C 55.105192 55.215934 55.038245 55.238909 54.978516 55.277344 L 44.396484 62.103516 C 41.834717 57.595072 36.945237 54.50742 31.306641 54.332031 L 31.306641 46.306641 L 34.306641 46.306641 L 34.306641 53.806641 C 34.306641 54.082641 34.530641 54.306641 34.806641 54.306641 C 35.082641 54.306641 35.306641 54.082641 35.306641 53.806641 L 35.306641 45.806641 C 35.306641 45.755728 35.291509 45.710357 35.277344 45.664062 C 39.181173 44.523714 42.437524 41.934552 44.376953 38.541016 z M 69.861328 40.275391 C 64.125328 40.275391 59.460938 44.941734 59.460938 50.677734 C 59.460937 56.413734 64.125328 61.080078 69.861328 61.080078 C 75.597328 61.080078 80.263672 56.413734 80.263672 50.677734 C 80.263672 50.401734 80.039672 50.177734 79.763672 50.177734 C 79.487672 50.177734 79.263672 50.401734 79.263672 50.677734 C 79.263672 55.861734 75.045328 60.080078 69.861328 60.080078 C 64.677328 60.080078 60.460938 55.861734 60.460938 50.677734 C 60.460937 45.493734 64.677328 41.275391 69.861328 41.275391 C 70.137328 41.275391 70.361328 41.051391 70.361328 40.775391 C 70.361328 40.499391 70.137328 40.275391 69.861328 40.275391 z M 73.716797 41.054688 C 73.522078 41.054688 73.336109 41.168125 73.255859 41.359375 C 73.148859 41.613375 73.267484 41.908625 73.521484 42.015625 C 75.047484 42.660625 76.382812 43.704203 77.382812 45.033203 C 77.480813 45.164203 77.62925 45.232422 77.78125 45.232422 C 77.88625 45.232422 77.992031 45.200813 78.082031 45.132812 C 78.303031 44.966813 78.347641 44.652641 78.181641 44.431641 C 77.076641 42.961641 75.598156 41.80775 73.910156 41.09375 C 73.846906 41.067 73.781703 41.054688 73.716797 41.054688 z M 30.806641 56.306641 C 38.250641 56.306641 44.306641 62.138641 44.306641 69.306641 C 44.306641 76.474641 38.250641 82.306641 30.806641 82.306641 C 23.362641 82.306641 17.306641 76.474641 17.306641 69.306641 C 17.306641 62.138641 23.362641 56.306641 30.806641 56.306641 z M 30.501953 58.607422 C 24.765953 58.607422 20.099609 63.273766 20.099609 69.009766 C 20.099609 74.745766 24.765953 79.412109 30.501953 79.412109 C 36.237953 79.412109 40.903344 74.745766 40.902344 69.009766 C 40.902344 68.733766 40.678344 68.509766 40.402344 68.509766 C 40.126344 68.509766 39.902344 68.733766 39.902344 69.009766 C 39.902344 74.193766 35.685953 78.412109 30.501953 78.412109 C 25.317953 78.412109 21.099609 74.193766 21.099609 69.009766 C 21.099609 63.825766 25.317953 59.607422 30.501953 59.607422 C 30.777953 59.607422 31.001953 59.383422 31.001953 59.107422 C 31.001953 58.831422 30.777953 58.607422 30.501953 58.607422 z M 34.357422 59.386719 C 34.162703 59.386719 33.976734 59.500156 33.896484 59.691406 C 33.789484 59.945406 33.908109 60.240656 34.162109 60.347656 C 35.687109 60.993656 37.021484 62.035234 38.021484 63.365234 C 38.119484 63.495234 38.269875 63.564453 38.421875 63.564453 C 38.525875 63.564453 38.632656 63.532844 38.722656 63.464844 C 38.943656 63.298844 38.986312 62.984672 38.820312 62.763672 C 37.714313 61.293672 36.238781 60.139781 34.550781 59.425781 C 34.487531 59.399031 34.422328 59.386719 34.357422 59.386719 z"/></svg>