<svg fill="#000000" xmlns="http://www.w3.org/2000/svg"  viewBox="0 0 100 100" width="200px" height="200px"><path d="M 24.5 15 C 19.538 15 15.5 19.037 15.5 24 L 15.5 61 C 15.5 65.963 19.538 70 24.5 70 L 61.5 70 C 66.462 70 70.5 65.963 70.5 61 L 70.5 24 C 70.5 19.037 66.462 15 61.5 15 L 24.5 15 z M 24.5 17 L 61.5 17 C 65.36 17 68.5 20.141 68.5 24 L 68.5 61 C 68.5 64.859 65.36 68 61.5 68 L 24.5 68 C 20.64 68 17.5 64.859 17.5 61 L 17.5 24 C 17.5 20.141 20.64 17 24.5 17 z M 25 20 C 22.519 20 20.5 22.019 20.5 24.5 L 20.5 60.5 C 20.5 62.981 22.519 65 25 65 L 61 65 C 63.481 65 65.5 62.981 65.5 60.5 L 65.5 43 C 65.5 42.724 65.276 42.5 65 42.5 C 64.724 42.5 64.5 42.724 64.5 43 L 64.5 60.5 C 64.5 62.43 62.93 64 61 64 L 25 64 C 23.07 64 21.5 62.43 21.5 60.5 L 21.5 24.5 C 21.5 22.57 23.07 21 25 21 L 54 21 C 54.276 21 54.5 20.776 54.5 20.5 C 54.5 20.224 54.276 20 54 20 L 25 20 z M 74.5 30 C 73.948 30 73.5 30.447 73.5 31 C 73.5 31.553 73.948 32 74.5 32 L 76.5 32 C 80.36 32 83.5 35.141 83.5 39 L 83.5 76 C 83.5 79.859 80.36 83 76.5 83 L 39.5 83 C 35.64 83 32.5 79.859 32.5 76 L 32.5 74 C 32.5 73.447 32.052 73 31.5 73 C 30.948 73 30.5 73.447 30.5 74 L 30.5 76 C 30.5 80.963 34.538 85 39.5 85 L 76.5 85 C 81.462 85 85.5 80.963 85.5 76 L 85.5 39 C 85.5 34.037 81.462 30 76.5 30 L 74.5 30 z M 65 31 C 64.724 31 64.5 31.224 64.5 31.5 L 64.5 33.5 C 64.5 33.776 64.724 34 65 34 C 65.276 34 65.5 33.776 65.5 33.5 L 65.5 31.5 C 65.5 31.224 65.276 31 65 31 z M 65 35 C 64.724 35 64.5 35.224 64.5 35.5 L 64.5 39.5 C 64.5 39.776 64.724 40 65 40 C 65.276 40 65.5 39.776 65.5 39.5 L 65.5 35.5 C 65.5 35.224 65.276 35 65 35 z"/></svg>