<svg fill="#000000" xmlns="http://www.w3.org/2000/svg"  viewBox="0 0 100 100" width="200px" height="200px"><path d="M 24.634766 13.001953 C 12.66722 13.198454 3 22.983323 3 35 L 3 35.5 C 3 37.973438 5.026562 40 7.5 40 C 9.973438 40 12 37.973438 12 35.5 L 12 35.394531 C 12 28.368869 17.387535 22.343844 24.369141 22.015625 C 31.85379 21.662804 38 27.600142 38 35 L 38 42 L 33 42 C 29.698375 42 27 44.698375 27 48 L 27 69 C 27 77.82448 34.17552 85 43 85 L 69 85 C 77.82448 85 85 77.82448 85 69 L 85 48 C 85 44.698375 82.301625 42 79 42 L 47 42 L 47 35.503906 C 47 23.598537 37.72941 13.438197 25.800781 13.013672 C 25.410193 12.99981 25.020815 12.995614 24.634766 13.001953 z M 24.667969 15.001953 C 25.019823 14.996264 25.374369 14.999081 25.730469 15.011719 C 36.56184 15.397194 45 24.635275 45 35.503906 L 45 42 L 40 42 L 40 35 C 40 26.487858 32.870741 19.612399 24.275391 20.017578 C 16.196996 20.397359 10 27.344194 10 35.394531 L 10 35.5 C 10 36.892562 8.892562 38 7.5 38 C 6.107438 38 5 36.892562 5 35.5 L 5 35 C 5 24.053427 13.760486 15.178317 24.667969 15.001953 z M 33 44 L 79 44 C 81.220375 44 83 45.779625 83 48 L 83 51 L 71.5 51 A 0.50005 0.50005 0 1 0 71.5 52 L 73.939453 52 L 68.328125 60 L 61.548828 60 L 67.160156 52 L 68.5 52 A 0.50005 0.50005 0 1 0 68.5 51 L 63.5 51 A 0.50005 0.50005 0 1 0 63.5 52 L 65.939453 52 L 60.328125 60 L 53.548828 60 L 59.160156 52 L 60.5 52 A 0.50005 0.50005 0 1 0 60.5 51 L 29 51 L 29 48 C 29 45.779625 30.779625 44 33 44 z M 29 52 L 33.939453 52 L 29 59.041016 L 29 52 z M 35.160156 52 L 41.939453 52 L 36.328125 60 L 29.548828 60 L 35.160156 52 z M 43.160156 52 L 49.939453 52 L 44.328125 60 L 37.548828 60 L 43.160156 52 z M 51.160156 52 L 57.939453 52 L 52.328125 60 L 45.548828 60 L 51.160156 52 z M 75.160156 52 L 81.939453 52 L 76.328125 60 L 69.548828 60 L 75.160156 52 z M 83 52.228516 L 83 60 L 77.548828 60 L 83 52.228516 z M 29 61 L 83 61 L 83 69 C 83 76.74352 76.74352 83 69 83 L 43 83 C 35.25648 83 29 76.74352 29 69 L 29 61 z M 56 65 C 54.348906 65 53 66.348906 53 68 C 53 68.791037 53.351585 69.47878 53.855469 70.015625 L 52.015625 77.378906 A 0.50005 0.50005 0 0 0 52.5 78 L 59.5 78 A 0.50005 0.50005 0 0 0 59.984375 77.378906 L 58.144531 70.015625 C 58.648415 69.47878 59 68.791037 59 68 C 59 66.348906 57.651094 65 56 65 z M 56 66 C 57.110906 66 58 66.889094 58 68 C 58 68.619351 57.721795 69.166642 57.283203 69.533203 A 0.50005 0.50005 0 0 0 57.119141 70.039062 L 58.859375 77 L 53.140625 77 L 54.880859 70.039062 A 0.50005 0.50005 0 0 0 54.716797 69.533203 C 54.278205 69.166642 54 68.619351 54 68 C 54 66.889094 54.889094 66 56 66 z"/></svg>